<?xml version="1.0" standalone="no"?><!-- Generator: Gravit.io --><svg xmlns="http://www.w3.org/2000/svg" xmlns:xlink="http://www.w3.org/1999/xlink" style="isolation:isolate" viewBox="0 0 375 375.002" width="375" height="375.002"><defs><clipPath id="_clipPath_6gxMtQMXMKFqzJJL9SgYwlvvxGNWhohf"><rect width="375" height="375.002"/></clipPath></defs><g clip-path="url(#_clipPath_6gxMtQMXMKFqzJJL9SgYwlvvxGNWhohf)"><g id="aulas"><path d=" M 277.386 375.002 L 311.879 375.002 L 272.555 242.209 L 238.062 242.209 L 259.196 313.576 L 115.803 313.576 L 136.938 242.209 L 102.445 242.209 L 63.121 375.002 L 97.614 375.002 L 108.4 338.576 L 266.6 338.576 L 277.386 375.002 Z " fill="rgb(220,135,68)"/><path d=" M 0 256.432 L 0 20 C 0 8.954 8.954 0 20 0 L 355 0 C 366.046 0 375 8.954 375 20 L 375 256.432 C 375 267.478 366.046 276.432 355 276.432 L 20 276.432 C 8.954 276.432 0 267.477 0 256.432 Z " fill="rgb(252,212,98)"/><rect x="24.255" y="24.256" width="326.501" height="227.925" transform="matrix(1,0,0,1,0,0)" fill="rgb(68,196,161)"/><g id="Grupo"><rect x="24.255" y="24.256" width="16.82" height="227.925" transform="matrix(1,0,0,1,0,0)" fill="rgb(49,151,140)"/><rect x="333.93" y="24.271" width="16.82" height="227.925" transform="matrix(1,0,0,1,0,0)" fill="rgb(49,151,140)"/></g><g id="Grupo"><path d=" M 333.329 46.783 L 40.94 46.783 L 24.253 24.255 L 350.746 24.255 L 333.329 46.783 Z " fill="rgb(62,166,155)"/><path d=" M 333.329 229.649 L 40.94 229.649 L 24.253 252.178 L 350.746 252.178 L 333.329 229.649 Z " fill="rgb(62,166,155)"/></g><rect x="230.345" y="208.901" width="90.35" height="20.74" transform="matrix(1,0,0,1,0,0)" fill="rgb(225,230,233)"/></g></g></svg>