<?xml version="1.0" standalone="no"?><!-- Generator: Gravit.io --><svg xmlns="http://www.w3.org/2000/svg" xmlns:xlink="http://www.w3.org/1999/xlink" style="isolation:isolate" viewBox="0 0 160 160" width="160" height="160"><defs><clipPath id="_clipPath_VfwkfqIGkQPZ5a2DUMTLWjU5T9FIiduN"><rect width="160" height="160"/></clipPath></defs><g clip-path="url(#_clipPath_VfwkfqIGkQPZ5a2DUMTLWjU5T9FIiduN)"><clipPath id="_clipPath_gA7hqEcldSWzFxl1hIh9zodZX8K8RiaS"><rect x="0" y="0" width="160" height="160" transform="matrix(1,0,0,1,0,0)" fill="rgb(255,255,255)"/></clipPath><g clip-path="url(#_clipPath_gA7hqEcldSWzFxl1hIh9zodZX8K8RiaS)"><g id="Grupo"><path d=" M 80 0 C 35.884 0 0 35.884 0 80 C 0 124.116 35.884 160 80 160 C 124.116 160 160 124.116 160 80 C 160 35.884 124.116 0 80 0 Z  M 80 5.517 C 121.068 5.517 154.483 38.932 154.483 80 C 154.483 121.068 121.068 154.483 80 154.483 C 38.932 154.483 5.517 121.068 5.517 80 C 5.517 38.932 38.932 5.517 80 5.517 Z  M 78.792 16.574 C 62.394 16.903 46.756 23.55 35.139 35.128 C 23.159 47.123 16.552 63.048 16.552 80 C 16.552 96.952 23.145 112.877 35.128 124.872 C 35.669 125.399 36.381 125.68 37.079 125.68 C 38.196 125.678 39.202 125.005 39.631 123.973 C 40.06 122.941 39.827 121.753 39.04 120.96 C 37.771 119.699 36.596 118.383 35.462 117.026 C 35.495 116.971 35.561 116.93 35.592 116.863 C 41.779 104.138 52.714 95.366 65.291 92.51 C 69.407 96.607 74.472 99.31 80 99.31 C 85.528 99.31 90.604 96.607 94.709 92.51 C 107.297 95.354 118.232 104.138 124.419 116.863 C 124.45 116.93 124.494 116.982 124.527 117.037 C 123.396 118.383 122.221 119.71 120.96 120.96 C 119.882 122.041 119.882 123.791 120.96 124.872 C 121.498 125.399 122.21 125.68 122.919 125.68 C 123.622 125.68 124.331 125.399 124.872 124.872 C 136.806 112.995 143.495 96.838 143.448 80 C 143.448 63.048 136.855 47.123 124.872 35.128 C 123.047 33.312 121.118 31.603 119.095 30.011 C 117.892 29.075 116.159 29.287 115.217 30.486 C 114.765 31.061 114.562 31.792 114.651 32.518 C 114.74 33.244 115.114 33.904 115.691 34.353 C 117.54 35.809 119.3 37.375 120.96 39.043 C 131.863 49.879 137.975 64.628 137.931 80 C 137.962 91.453 134.57 102.654 128.19 112.166 C 121.561 100.011 110.916 91.368 98.621 87.801 C 102.469 82.166 104.828 75.269 104.828 68.966 L 104.828 63.448 C 104.828 49.766 93.683 38.621 80 38.621 C 66.317 38.621 55.172 49.766 55.172 63.448 L 55.172 68.966 C 55.172 75.269 57.523 82.166 61.379 87.801 C 49.084 91.368 38.428 100.011 31.81 112.166 C 25.43 102.654 22.038 91.453 22.069 80 C 22.025 64.627 28.137 49.877 39.04 39.04 C 52.132 25.937 70.883 19.87 89.214 22.803 C 89.936 22.922 90.676 22.747 91.269 22.318 C 91.861 21.888 92.258 21.239 92.37 20.516 C 92.61 19.011 91.589 17.596 90.086 17.349 C 86.353 16.749 82.574 16.489 78.794 16.574 L 78.792 16.574 Z  M 101.131 20.378 C 99.813 20.425 98.713 21.398 98.506 22.7 C 98.298 24.002 99.041 25.269 100.279 25.724 C 102.243 26.455 104.193 27.305 106.066 28.243 C 107.429 28.932 109.093 28.388 109.785 27.026 C 110.463 25.663 109.915 24.008 108.557 23.319 C 106.497 22.284 104.364 21.36 102.21 20.549 C 101.865 20.424 101.5 20.366 101.134 20.378 L 101.131 20.378 Z  M 80 44.138 C 90.648 44.138 99.31 52.8 99.31 63.448 L 99.31 68.966 C 99.31 79.914 90.215 93.793 80 93.793 C 69.785 93.793 60.69 79.914 60.69 68.966 L 60.69 63.448 C 60.69 52.8 69.352 44.138 80 44.138 Z  M 53.448 125.228 C 52.349 125.086 51.272 125.622 50.723 126.585 L 47.964 131.368 C 47.598 132 47.498 132.751 47.686 133.456 C 47.874 134.161 48.334 134.763 48.966 135.128 C 49.596 135.496 50.348 135.597 51.054 135.409 C 51.759 135.221 52.361 134.76 52.726 134.127 L 55.484 129.343 C 55.949 128.545 55.982 127.567 55.572 126.739 C 55.163 125.91 54.365 125.343 53.448 125.228 Z  M 106.552 125.228 C 105.635 125.347 104.838 125.916 104.429 126.746 C 104.019 127.575 104.052 128.554 104.516 129.354 L 107.274 134.127 C 107.639 134.76 108.241 135.221 108.946 135.409 C 109.652 135.597 110.403 135.496 111.034 135.128 C 111.668 134.765 112.131 134.163 112.319 133.457 C 112.507 132.751 112.405 131.999 112.036 131.368 L 109.277 126.596 C 108.725 125.635 107.652 125.096 106.552 125.228 Z  M 65.688 130.604 C 64.591 130.763 63.693 131.559 63.404 132.629 L 61.983 137.964 C 61.591 139.437 62.467 140.948 63.939 141.341 C 65.412 141.733 66.924 140.857 67.316 139.385 L 68.739 134.052 C 68.931 133.348 68.834 132.596 68.47 131.963 C 68.106 131.33 67.505 130.868 66.8 130.679 C 66.44 130.574 66.062 130.549 65.691 130.604 L 65.688 130.604 Z  M 94.309 130.604 C 93.938 130.549 93.56 130.574 93.2 130.679 C 91.735 131.065 90.863 132.585 91.25 134.052 L 92.684 139.385 C 93.084 140.854 94.594 141.725 96.066 141.335 C 97.531 140.938 98.406 139.429 98.017 137.964 L 96.596 132.629 C 96.307 131.559 95.409 130.763 94.312 130.604 L 94.309 130.604 Z  M 80 132.414 C 78.483 132.414 77.241 133.655 77.241 135.172 L 77.241 140.69 C 77.241 142.207 78.483 143.448 80 143.448 C 81.517 143.448 82.759 142.207 82.759 140.69 L 82.759 135.172 C 82.759 133.655 81.517 132.414 80 132.414 Z " fill="rgb(180,189,189)"/></g></g></g></svg>