<?xml version="1.0" standalone="no"?><!-- Generator: Gravit.io --><svg xmlns="http://www.w3.org/2000/svg" xmlns:xlink="http://www.w3.org/1999/xlink" style="isolation:isolate" viewBox="0 0 58 58" width="58" height="58"><defs><clipPath id="_clipPath_3ZerN9360GpwtW2bAtQ7RfyqpJL1CagV"><rect width="58" height="58"/></clipPath></defs><g clip-path="url(#_clipPath_3ZerN9360GpwtW2bAtQ7RfyqpJL1CagV)"><g id="Group"><rect x="2" y="0" width="44" height="58" transform="matrix(1,0,0,1,0,0)" fill="rgb(50,56,77)"/><rect x="2" y="0" width="8" height="58" transform="matrix(1,0,0,1,0,0)" fill="rgb(83,111,125)"/><rect x="17" y="10" width="22" height="12" transform="matrix(1,0,0,1,0,0)" fill="rgb(180,189,189)"/><rect x="21" y="13" width="14" height="2" transform="matrix(1,0,0,1,0,0)" fill="rgb(50,56,77)"/><rect x="21" y="17" width="14" height="2" transform="matrix(1,0,0,1,0,0)" fill="rgb(50,56,77)"/><g id="Group"><rect x="36" y="42" width="20" height="16" transform="matrix(1,0,0,1,0,0)" fill="rgb(85,96,128)"/><path d=" M 49 49 C 49 47.343 47.657 46 46 46 C 44.343 46 43 47.343 43 49 C 43 50.317 43.854 51.424 45.035 51.827 C 45.024 51.885 45 51.939 45 52 L 45 54 C 45 54.552 45.448 55 46 55 C 46.552 55 47 54.552 47 54 L 47 52 C 47 51.939 46.976 51.885 46.965 51.827 C 48.146 51.424 49 50.317 49 49 Z " fill="rgb(50,56,77)"/><path d=" M 41 40 C 41 37.243 43.243 35 46 35 C 48.757 35 51 37.243 51 40 L 51 42 L 53 42 L 53 40 C 53 36.14 49.86 33 46 33 C 42.14 33 39 36.14 39 40 L 39 42 L 41 42 L 41 40 L 41 40 Z " fill="rgb(189,195,199)"/></g></g></g></svg>