<?xml version="1.0" standalone="no"?><!-- Generator: Gravit.io --><svg xmlns="http://www.w3.org/2000/svg" xmlns:xlink="http://www.w3.org/1999/xlink" style="isolation:isolate" viewBox="0 0 111.24 112.01" width="111.24" height="112.01"><defs><clipPath id="_clipPath_BZlwGVrtfoQ4J1PmM7034UDZ7XLmnAsE"><rect width="111.24" height="112.01"/></clipPath></defs><g clip-path="url(#_clipPath_BZlwGVrtfoQ4J1PmM7034UDZ7XLmnAsE)"><path d=" M 70.857 11.633 L 62.09 0 L 0 46.79 L 49.15 112.01 L 111.24 65.22 L 77.206 20.058 L 102.78 64.35 L 48.36 95.78 L 17.55 42.41 L 70.857 11.633 Z " fill="rgb(180,189,189)"/><path d=" M 51.22 48.78 C 51.22 52.79 48.11 56.05 44.29 56.05 C 40.46 56.05 37.35 52.79 37.35 48.78 C 37.35 44.77 40.46 41.51 44.29 41.51 C 48.11 41.51 51.22 44.77 51.22 48.78 Z " fill="rgb(180,189,189)"/><path d=" M 73.89 67.01 C 73.89 68.94 72.39 70.5 70.55 70.5 C 68.71 70.5 67.22 68.94 67.22 67.01 C 67.22 65.08 68.71 63.51 70.55 63.51 C 72.39 63.51 73.89 65.08 73.89 67.01 Z " fill="rgb(180,189,189)"/></g></svg>